OpenSim_Sub10_CSStiffKnee_LCS.mot
version=1
nRows=76
nColumns=11
inDegrees=no
endheader
time	Bot_Shank	2nd_Bot_Shank	2nd_Top_Shank	Top_Shank	Bot_Thigh	Med_Thigh	Top_Thigh	BNOx	BNOy	BNOZ
40.87000000	10303.74712700	10229.07882936	10622.00490782	10565.31825892	12841.40379499	14054.35859580	14527.29256167	202.38559636	-76.88615502	132.31685727
40.88000000	10290.52368022	10210.33685183	10597.45820374	10552.21500891	12834.52140292	14051.11911834	14526.28540250	204.78952483	-75.10524192	128.71629389
40.89000000	10277.97265557	10193.27298186	10575.47901489	10541.50340727	12834.16106851	14048.24760097	14527.02485166	207.15584315	-73.25589631	123.37992254
40.90000000	10266.70860570	10178.91773713	10557.23094072	10533.01008714	12839.75591831	14045.73677839	14528.71047467	209.42284625	-71.40748119	117.33745603
40.91000000	10257.34608326	10168.30163530	10543.87758065	10526.56168164	12850.73907883	14043.57938532	14530.54183706	211.52882904	-69.62935951	111.61860716
40.92000000	10250.44025517	10162.34670996	10536.45735926	10521.97905712	12866.50053621	14041.76433011	14531.77489387	213.41713472	-67.98591023	107.18124326
40.93000000	10245.93321278	10160.85504705	10534.71644379	10519.02354578	12885.98491158	14040.24101905	14532.24774390	215.08322321	-66.49005882	104.24152672
40.94000000	10243.40536578	10162.96802346	10537.63863905	10517.42135788	12907.87408467	14038.93555432	14532.14191948	216.55330045	-65.12437602	102.57805376
40.95000000	10242.43244915	10167.81847650	10544.19789642	10516.89824972	12930.84653929	14037.77373695	14531.64339179	217.85396980	-63.87104022	101.96376514
40.96000000	10242.59019789	10174.53924350	10553.36816726	10517.17997761	12953.58075927	14036.68136792	14530.93813201	219.01183460	-62.71222983	102.17160162
40.97000000	10243.45434700	10182.26316180	10564.12340297	10517.99229787	12974.75522843	14035.58424823	14530.21211132	220.05349818	-61.63012323	102.97450397
40.98000000	10244.60063148	10190.12306870	10575.43755491	10519.06096680	12993.04843058	14034.40817889	14529.65130088	221.00556389	-60.60689882	104.14541295
40.99000000	10245.60478632	10197.25180155	10586.28457446	10520.11174071	13007.13884955	14033.07896089	14529.44167187	221.89463508	-59.62473501	105.45726931
41	10246.04254651	10202.78219765	10595.63841300	10520.87037592	13015.70496916	14031.52239524	14529.76919547	222.74731508	-58.66581018	106.68301382
41.01000000	10245.52425434	10205.92321188	10602.55394478	10521.08923174	13017.56107296	14029.67944660	14530.79956768	223.58862933	-57.71393739	107.61146893
41.02000000	10244.01752425	10206.66960726	10606.92146057	10520.79530676	13012.92338856	14027.64762347	14532.48917145	224.42731345	-56.76980536	108.19541366
41.03000000	10241.70074212	10205.47973144	10609.12410207	10520.17762198	13002.83521539	14025.61678684	14534.67090626	225.26249298	-55.84405851	108.48435257
41.04000000	10238.75501802	10202.81792387	10609.55138099	10519.42729254	12988.35054263	14023.77799133	14537.17607558	226.09316922	-54.94746994	108.52904041
41.05000000	10235.36146202	10199.14852395	10608.59280906	10518.73543354	12970.52335947	14022.32229156	14539.83598287	226.91834350	-54.09081276	108.38023191
41.06000000	10231.70118419	10194.93587113	10606.63789800	10518.29316012	12950.40765508	14021.44074214	14542.48193163	227.73701713	-53.28486006	108.08868180
41.07000000	10227.95529458	10190.64430484	10604.07615952	10518.29158740	12929.05741866	14021.32439771	14544.94522530	228.54819143	-52.54038496	107.70514483
41.08000000	10224.30490326	10186.73816448	10601.29710535	10518.92183050	12907.52663939	14022.16431287	14547.05716738	229.35086771	-51.86816056	107.28037572
41.09000000	10220.93112030	10183.68178950	10598.69024721	10520.37500454	12886.86930646	14024.15154225	14548.64906133	230.14404729	-51.27895996	106.86512921
41.10000000	10218.00623543	10181.89867423	10596.61553279	10522.80091460	12868.09109016	14027.45010384	14549.57639882	230.92587111	-50.78327874	106.50709465
41.11000000	10215.61148059	10181.39064405	10595.12770202	10525.92289661	12851.69883517	14031.94489992	14549.94438107	231.68559797	-50.38874745	106.22231547
41.12000000	10213.77436850	10181.91076224	10594.10143869	10529.21269264	12837.90510580	14037.35616946	14550.00552460	232.40724668	-50.10130641	106.00816568
41.13000000	10212.52171758	10183.20887690	10593.40909936	10532.13879292	12826.91866284	14043.40202320	14550.01424991	233.07476831	-49.92687411	105.86177804
41.14000000	10211.88034626	10185.03483612	10592.92304059	10534.16968770	12818.94826708	14049.80057186	14550.22497752	233.67211394	-49.87136903	105.78028526
41.15000000	10211.87707295	10187.13848798	10592.51561895	10534.77386722	12814.20267932	14056.26992618	14550.89212796	234.18323465	-49.94070964	105.76082008
41.16000000	10212.53871607	10189.26968059	10592.05919102	10533.41982171	12812.89066034	14062.52819688	14552.27012173	234.59208152	-50.14081444	105.80051523
41.17000000	10213.89209404	10191.17826201	10591.42611336	10529.57604142	12815.22097094	14068.29349469	14554.61337937	234.88260563	-50.47760190	105.89650344
41.18000000	10215.96402527	10192.61408036	10590.48874254	10522.71101659	12821.40237190	14073.28393034	14558.17632138	235.03875806	-50.95699050	106.04591744
41.19000000	10218.77806552	10193.35058079	10589.13430842	10512.35514251	12831.62346986	14077.23713375	14563.19560967	235.04565868	-51.58365283	106.24614929
41.20000000	10222.30895146	10193.51429080	10587.47258937	10498.96509738	12845.77130567	14080.18279974	14569.64218469	234.90591607	-52.34361922	106.49847122
41.21000000	10226.49383872	10193.50354134	10585.78468207	10483.71061386	12863.50077421	14082.37545526	14577.28243400	234.63560163	-53.20856914	106.80714241
41.22000000	10231.26891622	10193.72365511	10584.35609007	10467.77976681	12884.46079877	14084.07541071	14585.87748332	234.25113308	-54.14981292	107.17649891
41.23000000	10236.57037288	10194.57995480	10583.47231695	10452.36063112	12908.30030263	14085.54297652	14595.18845841	233.76892814	-55.13866088	107.61087675
41.24000000	10242.33439762	10196.47776308	10583.41886626	10438.64128167	12934.66820909	14087.03846309	14604.97648499	233.20540452	-56.14642333	108.11461196
41.25000000	10248.49717935	10199.82240264	10584.48124159	10427.80979333	12963.21344143	14088.82218084	14615.00268880	232.57697995	-57.14441061	108.69204057
41.26000000	10254.99490701	10205.01919617	10586.94494648	10421.05424099	12993.58492293	14091.15444018	14625.02819559	231.90007213	-58.10393303	109.34749861
41.27000000	10261.76002902	10212.42327897	10591.06104035	10419.44288426	13025.38486603	14094.26559488	14634.81386210	231.19075240	-58.99807913	110.08410700
41.28000000	10268.68637856	10221.87167095	10596.72499423	10422.80705609	13057.73325824	14098.07673779	14644.11776816	230.46151608	-59.81829504	110.89244214
41.29000000	10275.64500787	10232.89573177	10603.62250115	10430.24836911	13089.46560025	14102.32651443	14652.69635539	229.72274887	-60.56685690	111.75567989
41.30000000	10282.50667476	10245.02287048	10611.43654275	10440.85900440	13119.41371579	14106.75121219	14660.30604421	228.98480918	-61.24618082	112.65690043
41.31000000	10289.14213702	10257.78049612	10619.85010071	10453.73114305	13146.40942860	14111.08711848	14666.70325505	228.25805544	-61.85868289	113.57918396
41.32000000	10295.42215246	10270.69601774	10628.54615666	10467.95696614	13169.28456242	14115.07052072	14671.64440835	227.55284606	-62.40677923	114.50561066
41.33000000	10301.21747887	10283.29684439	10637.20769229	10482.62865476	13186.87094099	14118.43770631	14674.88592452	226.87953947	-62.89288595	115.41926072
41.34000000	10306.39887405	10295.11038511	10645.51768924	10496.83838999	13198.00038804	14120.92496265	14676.18422400	226.24849409	-63.31941915	116.30321434
41.35000000	10310.83709582	10305.66404894	10653.15912917	10509.67835293	13201.50472731	14122.26857715	14675.29572723	225.67006834	-63.68879495	117.14055171
41.36000000	10314.40290196	10314.48524494	10659.81499374	10520.24072466	13196.21578255	14122.20483723	14671.97685462	225.15462063	-64.00342944	117.91435301
41.37000000	10316.99094075	10321.17150573	10665.21064303	10527.73646598	13181.30821347	14120.53321652	14666.08002812	224.71059255	-64.26615078	118.60960341
41.38000000	10318.67242596	10325.83862095	10669.38464009	10532.25439391	13158.49045200	14117.52017454	14658.16718079	224.33225896	-64.48283237	119.22536702
41.39000000	10319.59770853	10328.83466462	10672.51592645	10534.27678329	13130.60657427	14113.64147522	14649.11825068	224.00754518	-64.66071249	119.76701816
41.40000000	10319.91751271	10330.50880641	10674.78410582	10534.28776483	13100.50601323	14109.37386981	14639.81467585	223.72434656	-64.80703587	120.23996092
41.41000000	10319.78256273	10331.21021599	10676.36878193	10532.77146931	13071.03820182	14105.19410952	14631.13789439	223.47055848	-64.92904724	120.64959939
41.42000000	10319.34358283	10331.28806305	10677.44955846	10530.21202744	13045.05257298	14101.57894558	14623.96934436	223.23407630	-65.03399131	121.00133766
41.43000000	10318.75129724	10331.09151728	10678.20603913	10527.09356999	13025.39855965	14099.00512923	14619.19046385	223.00279538	-65.12911282	121.30057983
41.44000000	10318.15643022	10330.96974833	10678.81782766	10523.90022769	13014.92559479	14097.94941169	14617.68269091	222.76461109	-65.22165649	121.55272998
41.45000000	10317.69785330	10331.24185260	10679.45202334	10521.08683555	13016.18766690	14098.83700655	14620.23305822	222.50802908	-65.31862779	121.76405307
41.46000000	10317.39207546	10331.91646123	10680.14663486	10518.80579068	13028.68871007	14101.56107275	14626.65399340	222.22785544	-65.42456223	121.94970121
41.47000000	10317.18341832	10332.81904755	10680.86351437	10517.03106807	13050.13328989	14105.70088548	14636.18295937	221.92261319	-65.54253815	122.13006943
41.48000000	10317.01527050	10333.77271761	10681.56352971	10515.73433661	13078.20271538	14110.83166306	14648.04998773	221.59087338	-65.67561507	122.32562058
41.49000000	10316.83102059	10334.60057744	10682.20754871	10514.88726521	13110.57829560	14116.52862379	14661.48511008	221.23120707	-65.82685252	122.55681746
41.50000000	10316.57405722	10335.12573308	10682.75643920	10514.46152276	13144.94133958	14122.36698599	14675.71835801	220.84218530	-65.99931000	122.84412289
41.51000000	10316.18776900	10335.17129059	10683.17106902	10514.42877817	13178.97315634	14127.92196797	14689.97976312	220.42237914	-66.19604704	123.20799969
41.52000000	10315.61554452	10334.56035600	10683.41230601	10514.76070034	13210.35505494	14132.76878804	14703.49935701	219.97035963	-66.42012316	123.66891068
41.53000000	10314.80077241	10333.11603536	10683.44101800	10515.42895817	13236.76834441	14136.48266450	14715.50717128	219.48469783	-66.67459787	124.24731869
41.54000000	10313.68684127	10330.66143470	10683.21807282	10516.40522056	13255.89433378	14138.63881568	14725.23323752	218.96396478	-66.96253070	124.96368652
41.55000000	10312.21703602	10327.02865372	10682.70474146	10517.65782657	13265.51043902	14138.83560621	14731.93817739	218.40685299	-67.28680491	125.83607062
41.56000000	10310.33225690	10322.25664606	10681.87156694	10519.07852869	13265.60453545	14137.20376664	14735.58618401	217.81484811	-67.64625011	126.82718070
41.57000000	10307.97101942	10316.59121934	10680.69836441	10520.48249291	13258.37495777	14134.40639341	14736.84502196	217.19222895	-68.03564224	127.84437975
41.58000000	10305.07173542	10310.28717481	10679.16535212	10521.68155532	13246.11614758	14131.12972927	14736.41304587	216.54339576	-68.44958101	128.79262439
41.59000000	10301.57281672	10303.59931373	10677.25274834	10522.48755205	13231.12254650	14128.06001700	14734.98861038	215.87274879	-68.88266610	129.57687123
41.60000000	10297.41267516	10296.78243734	10674.94077132	10522.71231921	13215.68859615	14125.88349936	14733.27007013	215.18468830	-69.32949722	130.10207687
41.61000000	10292.52972258	10290.09134690	10672.20963934	10522.16769291	13202.10873813	14125.28641914	14731.95577974	214.48361453	-69.78467406	130.27319793
41.62000000	10286.86237080	10283.78084367	10669.03957064	10520.66550927	13192.67741408	14126.95501909	14731.74409387	213.77392774	-70.24279631	129.99519102
